<?xml version="1.0" encoding="UTF-8" standalone="no"?>
<!-- Created with Inkscape (http://www.inkscape.org/) -->

<svg
   xmlns:dc="http://purl.org/dc/elements/1.1/"
   xmlns:cc="http://creativecommons.org/ns#"
   xmlns:rdf="http://www.w3.org/1999/02/22-rdf-syntax-ns#"
   xmlns:svg="http://www.w3.org/2000/svg"
   xmlns="http://www.w3.org/2000/svg"
   xmlns:sodipodi="http://sodipodi.sourceforge.net/DTD/sodipodi-0.dtd"
   xmlns:inkscape="http://www.inkscape.org/namespaces/inkscape"
   width="385.08932mm"
   height="307.12711mm"
   viewBox="0 0 1364.4897 1088.2456"
   id="svg3842"
   version="1.1"
   inkscape:version="0.91 r13725"
   sodipodi:docname="originalLevel1.svg">
  <defs
     id="defs3844" />
  <sodipodi:namedview
     id="base"
     pagecolor="#ffffff"
     bordercolor="#666666"
     borderopacity="1.0"
     inkscape:pageopacity="0.0"
     inkscape:pageshadow="2"
     inkscape:zoom="0.35"
     inkscape:cx="682.24486"
     inkscape:cy="544.1228"
     inkscape:document-units="px"
     inkscape:current-layer="layer1"
     showgrid="false"
     fit-margin-top="0"
     fit-margin-left="0"
     fit-margin-right="0"
     fit-margin-bottom="0"
     inkscape:window-width="1366"
     inkscape:window-height="705"
     inkscape:window-x="-8"
     inkscape:window-y="-8"
     inkscape:window-maximized="1" />
  <metadata
     id="metadata3847">
    <rdf:RDF>
      <cc:Work
         rdf:about="">
        <dc:format>image/svg+xml</dc:format>
        <dc:type
           rdf:resource="http://purl.org/dc/dcmitype/StillImage" />
        <dc:title></dc:title>
      </cc:Work>
    </rdf:RDF>
  </metadata>
  <g
     inkscape:label="Layer 1"
     inkscape:groupmode="layer"
     id="layer1"
     transform="translate(307.24486,11.76062)">
    <rect
       style="display:inline;opacity:1;fill:#ff0000;fill-opacity:1;stroke:none"
       id="rect5086"
       width="57.905651"
       height="4.5"
       x="179.09796"
       y="-181.07051"
       transform="scale(1,-1)" />
    <rect
       transform="scale(1,-1)"
       y="-220.30298"
       x="141.55322"
       height="4.5"
       width="95.042374"
       id="rect5088"
       style="display:inline;opacity:1;fill:#ff0000;fill-opacity:1;stroke:none" />
    <rect
       style="display:inline;opacity:1;fill:#ff0000;fill-opacity:1;stroke:none"
       id="rect5090"
       width="35.482307"
       height="4.5"
       x="-216.17789"
       y="-236.59558"
       transform="matrix(0,-1,-1,0,0,0)" />
    <rect
       transform="matrix(0,-1,-1,0,0,0)"
       y="-355.31311"
       x="-185.74387"
       height="4.5"
       width="5.0482936"
       id="rect5092"
       style="display:inline;opacity:1;fill:#ff0000;fill-opacity:1;stroke:none" />
    <rect
       style="display:inline;opacity:1;fill:#ff0000;fill-opacity:1;stroke:none"
       id="rect5094"
       width="5.0482936"
       height="4.5"
       x="-217.62025"
       y="-355.31311"
       transform="matrix(0,-1,-1,0,0,0)" />
    <rect
       transform="scale(-1,-1)"
       y="-493.62329"
       x="-1013.8451"
       height="4.7884741"
       width="53.827648"
       id="rect5096"
       style="display:inline;opacity:1;fill:#ff0000;fill-opacity:1;stroke:none" />
    <rect
       style="display:inline;opacity:1;fill:#ff0000;fill-opacity:1;stroke:none"
       id="rect5098"
       width="95.656387"
       height="4.5"
       x="-1055.0956"
       y="-532.56732"
       transform="scale(-1,-1)" />
    <rect
       transform="matrix(0,-1,1,0,0,0)"
       y="959.43909"
       x="-528.4422"
       height="4.5"
       width="35.482307"
       id="rect5100"
       style="display:inline;opacity:1;fill:#ff0000;fill-opacity:1;stroke:none" />
    <rect
       style="display:inline;opacity:1;fill:#ff0000;fill-opacity:1;stroke:none"
       id="rect5102"
       width="5.0482936"
       height="4.5"
       x="-498.00818"
       y="845.78186"
       transform="matrix(0,-1,1,0,0,0)" />
    <rect
       transform="matrix(0,-1,1,0,0,0)"
       y="845.78186"
       x="-529.88458"
       height="4.5"
       width="5.0482936"
       id="rect5104"
       style="display:inline;opacity:1;fill:#ff0000;fill-opacity:1;stroke:none" />
    <rect
       transform="scale(1,-1)"
       y="-174.72408"
       x="374.37061"
       height="6.3464303"
       width="6.3464279"
       id="rect5106"
       style="display:inline;opacity:1;fill:#ff0000;fill-opacity:1;stroke:none" />
    <rect
       style="display:inline;opacity:1;fill:#ff0000;fill-opacity:1;stroke:none"
       id="rect5108"
       width="6.3464279"
       height="6.3464303"
       x="597.80981"
       y="-174.72408"
       transform="scale(1,-1)" />
    <rect
       transform="scale(1,-1)"
       y="-174.72408"
       x="821.24902"
       height="6.3464303"
       width="6.3464279"
       id="rect5110"
       style="display:inline;opacity:1;fill:#ff0000;fill-opacity:1;stroke:none" />
    <rect
       style="display:inline;opacity:1;fill:#ff0000;fill-opacity:1;stroke:none"
       id="rect5112"
       width="6.3464279"
       height="6.3464303"
       x="374.37061"
       y="-355.20673"
       transform="scale(1,-1)" />
    <rect
       transform="scale(1,-1)"
       y="-355.20673"
       x="597.80981"
       height="6.3464303"
       width="6.3464279"
       id="rect5114"
       style="display:inline;opacity:1;fill:#ff0000;fill-opacity:1;stroke:none" />
    <rect
       style="display:inline;opacity:1;fill:#ff0000;fill-opacity:1;stroke:none"
       id="rect5116"
       width="6.3464279"
       height="6.3464303"
       x="821.24902"
       y="-355.20673"
       transform="scale(1,-1)" />
    <rect
       transform="scale(1,-1)"
       y="-535.68939"
       x="374.37061"
       height="6.3464303"
       width="6.3464279"
       id="rect5118"
       style="display:inline;opacity:1;fill:#ff0000;fill-opacity:1;stroke:none" />
    <rect
       style="display:inline;opacity:1;fill:#ff0000;fill-opacity:1;stroke:none"
       id="rect5120"
       width="6.3464279"
       height="6.3464303"
       x="597.80981"
       y="-535.68939"
       transform="scale(1,-1)" />
    <rect
       transform="scale(1,-1)"
       y="-535.68939"
       x="821.24902"
       height="6.3464303"
       width="6.3464279"
       id="rect5122"
       style="display:inline;opacity:1;fill:#ff0000;fill-opacity:1;stroke:none" />
    <rect
       style="display:inline;opacity:1;fill:#ff0000;fill-opacity:1;stroke:none"
       id="rect5124"
       width="6.3464279"
       height="6.3464303"
       x="374.37061"
       y="-716.17206"
       transform="scale(1,-1)" />
    <rect
       transform="scale(1,-1)"
       y="-716.17206"
       x="597.80981"
       height="6.3464303"
       width="6.3464279"
       id="rect5126"
       style="display:inline;opacity:1;fill:#ff0000;fill-opacity:1;stroke:none" />
    <rect
       style="display:inline;opacity:1;fill:#ff0000;fill-opacity:1;stroke:none"
       id="rect5128"
       width="6.3464279"
       height="6.3464303"
       x="821.24902"
       y="-716.17206"
       transform="scale(1,-1)" />
    <rect
       style="display:inline;opacity:1;fill:#ff0000;fill-opacity:1;stroke:none"
       id="rect5130"
       width="6.3464279"
       height="6.3464303"
       x="597.80981"
       y="-896.65466"
       transform="scale(1,-1)" />
    <rect
       y="682.55524"
       x="270.40369"
       height="18.76634"
       width="147.14598"
       id="rect5132"
       style="display:inline;opacity:1;fill:#ffff00;fill-opacity:1;stroke:none" />
    <rect
       y="1040.6915"
       x="780.58887"
       height="35.793476"
       width="7.5599999"
       id="rect5136"
       style="display:inline;opacity:1;fill:#ff0000;fill-opacity:1;stroke:none" />
    <rect
       style="display:inline;opacity:1;fill:#ff0000;fill-opacity:1;stroke:none"
       id="rect5138"
       width="4.4876032"
       height="58.839245"
       x="601.43274"
       y="888.00427" />
    <rect
       y="988.97955"
       x="591.33618"
       height="69.08007"
       width="4.4876032"
       id="rect5140"
       style="display:inline;opacity:1;fill:#ff0000;fill-opacity:1;stroke:none" />
    <rect
       y="1058.0597"
       x="591.33618"
       height="14.558475"
       width="56.412933"
       id="rect5144"
       style="display:inline;opacity:1;fill:#ff0000;fill-opacity:1;stroke:none" />
    <rect
       transform="matrix(0,-1,1,0,0,0)"
       y="658.49133"
       x="-890.61676"
       height="30.136076"
       width="4.4876032"
       id="rect5146"
       style="display:inline;opacity:1;fill:#ff0000;fill-opacity:1;stroke:none" />
    <rect
       style="display:inline;opacity:1;fill:#ff0000;fill-opacity:1;stroke:none"
       id="rect5148"
       width="4.4876032"
       height="34.030476"
       x="-890.61676"
       y="601.43274"
       transform="matrix(0,-1,1,0,0,0)" />
    <rect
       transform="matrix(0,1,-1,0,0,0)"
       y="-566.02399"
       x="988.97955"
       height="191.92744"
       width="4.4876032"
       id="rect5150"
       style="display:inline;opacity:1;fill:#ff0000;fill-opacity:1;stroke:none" />
    <rect
       style="display:inline;opacity:1;fill:#ff0000;fill-opacity:1;stroke:none"
       id="rect5152"
       width="4.4876032"
       height="84.22496"
       x="-649.76837"
       y="-1074.0604"
       transform="scale(-1,-1)" />
    <rect
       style="display:inline;opacity:1;fill:#ff0000;fill-opacity:1;stroke:none"
       id="rect5154"
       width="6.3464279"
       height="6.3464303"
       x="137.00598"
       y="-166.56479"
       transform="scale(1,-1)" />
    <rect
       transform="scale(1,-1)"
       y="-347.04745"
       x="137.00598"
       height="6.3464303"
       width="6.3464279"
       id="rect5156"
       style="display:inline;opacity:1;fill:#ff0000;fill-opacity:1;stroke:none" />
    <rect
       style="display:inline;opacity:1;fill:#ff0000;fill-opacity:1;stroke:none"
       id="rect5158"
       width="6.3464279"
       height="6.3464303"
       x="137.00598"
       y="-527.53015"
       transform="scale(1,-1)" />
    <rect
       transform="scale(1,-1)"
       y="-708.01282"
       x="137.00598"
       height="6.3464303"
       width="6.3464279"
       id="rect5160"
       style="display:inline;opacity:1;fill:#ff0000;fill-opacity:1;stroke:none" />
    <rect
       y="-11.760591"
       x="137.61713"
       height="19.378286"
       width="25.870712"
       id="rect5162"
       style="display:inline;opacity:1;fill:#ff0000;fill-opacity:1;stroke:none" />
    <rect
       y="94.475204"
       x="137.58209"
       height="160.94899"
       width="5.9154763"
       id="rect5166"
       style="display:inline;opacity:1;fill:#ff0000;fill-opacity:1;stroke:none" />
    <rect
       style="display:inline;opacity:1;fill:#ff0000;fill-opacity:1;stroke:none"
       id="rect5168"
       width="5.9154763"
       height="347.51358"
       x="137.58209"
       y="278.75192" />
    <rect
       y="799.25073"
       x="131.96057"
       height="97.689537"
       width="18.970324"
       id="rect5172"
       style="display:inline;opacity:1;fill:#ff0000;fill-opacity:1;stroke:none" />
    <rect
       style="display:inline;opacity:1;fill:#ff0000;fill-opacity:1;stroke:none"
       id="rect5174"
       width="45.080009"
       height="6.9175611"
       x="137.27612"
       y="793.74323" />
    <rect
       transform="matrix(0,1,-1,0,0,0)"
       y="-376.2428"
       x="794.9671"
       height="7.5599999"
       width="281.50986"
       id="rect5180"
       style="display:inline;opacity:1;fill:#ff0000;fill-opacity:1;stroke:none" />
    <path
       style="display:inline;opacity:1;fill:#ff0000;fill-opacity:1;stroke:none"
       d="m 368.66842,1068.925 0,7.56 112.28066,0 8.15782,0 299.27803,0 0,-7.56 -299.27803,0 -8.15782,0 -112.28066,0 z"
       id="rect5182"
       inkscape:connector-curvature="0" />
    <rect
       transform="matrix(0,1,-1,0,0,0)"
       style="display:inline;opacity:1;fill:#ff0000;fill-opacity:1;stroke:none"
       id="rect5188"
       width="278.76294"
       height="6.9175611"
       x="797.71399"
       y="-830.39429" />
    <rect
       y="-839.72705"
       x="797.28131"
       height="16.250385"
       width="8.4637032"
       id="rect5190"
       style="display:inline;opacity:1;fill:#ff0000;fill-opacity:1;stroke:none"
       transform="matrix(0,1,-1,0,0,0)" />
    <rect
       transform="matrix(0,1,-1,0,0,0)"
       style="display:inline;opacity:1;fill:#ff0000;fill-opacity:1;stroke:none"
       id="rect5192"
       width="8.4637032"
       height="18.558176"
       x="797.28131"
       y="-1057.2449" />
    <rect
       y="-895.7489"
       x="-1057.2449"
       height="907.50952"
       width="8.4637032"
       id="rect5194"
       style="display:inline;opacity:1;fill:#ff0000;fill-opacity:1;stroke:none"
       transform="scale(-1,-1)" />
    <rect
       style="display:inline;opacity:1;fill:#ff0000;fill-opacity:1;stroke:none"
       id="rect5196"
       width="18.76634"
       height="19.378286"
       x="368.16064"
       y="-11.760591" />
    <rect
       y="-11.760591"
       x="591.59985"
       height="19.378286"
       width="18.76634"
       id="rect5198"
       style="display:inline;opacity:1;fill:#ff0000;fill-opacity:1;stroke:none" />
    <rect
       style="display:inline;opacity:1;fill:#ff0000;fill-opacity:1;stroke:none"
       id="rect5200"
       width="18.76634"
       height="19.378286"
       x="815.03906"
       y="-11.760591" />
    <rect
       y="-11.760591"
       x="1038.4783"
       height="19.378286"
       width="18.76634"
       id="rect5202"
       style="display:inline;opacity:1;fill:#ff0000;fill-opacity:1;stroke:none" />
    <rect
       y="-2.3774116"
       x="926.75867"
       height="5.9154768"
       width="18.76634"
       id="rect5204"
       style="display:inline;opacity:1;fill:#ff0000;fill-opacity:1;stroke:none" />
    <rect
       style="display:inline;opacity:1;fill:#ff0000;fill-opacity:1;stroke:none"
       id="rect5206"
       width="18.76634"
       height="5.9154768"
       x="703.3194"
       y="-2.3774116" />
    <rect
       y="-2.3774116"
       x="479.88025"
       height="5.9154768"
       width="18.76634"
       id="rect5208"
       style="display:inline;opacity:1;fill:#ff0000;fill-opacity:1;stroke:none" />
    <rect
       style="display:inline;opacity:1;fill:#ff0000;fill-opacity:1;stroke:none"
       id="rect5210"
       width="18.76634"
       height="5.9154768"
       x="256.44104"
       y="-2.3774116" />
    <rect
       style="display:inline;opacity:1;fill:#ff0000;fill-opacity:1;stroke:none"
       id="rect5212"
       width="6.9389038"
       height="72.745987"
       x="603.42731"
       y="-11.760591" />
    <rect
       y="-0.22163469"
       x="703.3194"
       height="61.207024"
       width="6.9389038"
       id="rect5214"
       style="display:inline;opacity:1;fill:#ff0000;fill-opacity:1;stroke:none" />
    <rect
       style="display:inline;opacity:1;fill:#ff0000;fill-opacity:1;stroke:none"
       id="rect5216"
       width="100.38897"
       height="4.5"
       x="-493.62329"
       y="1009.3451"
       transform="matrix(0,-1,1,0,0,0)" />
    <rect
       transform="matrix(0,-1,1,0,0,0)"
       y="1009.3451"
       x="-365.59686"
       height="4.5"
       width="10.303181"
       id="rect5218"
       style="display:inline;opacity:1;fill:#ff0000;fill-opacity:1;stroke:none" />
    <rect
       style="display:inline;opacity:1;fill:#ff0000;fill-opacity:1;stroke:none"
       id="rect5220"
       width="7.4184399"
       height="39.693836"
       x="-362.71213"
       y="1009.3451"
       transform="matrix(0,-1,1,0,0,0)" />
    <rect
       transform="matrix(0,1,-1,0,0,0)"
       style="display:inline;opacity:1;fill:#ff0000;fill-opacity:1;stroke:none"
       id="rect5222"
       width="8.4637032"
       height="16.250385"
       x="797.28131"
       y="-947.33215" />
    <rect
       y="797.21094"
       x="119.52969"
       height="6.9175611"
       width="19.786247"
       id="rect5224"
       style="display:inline;opacity:1;fill:#ff0000;fill-opacity:1;stroke:none" />
    <rect
       y="793.74323"
       x="238.3205"
       height="6.9175611"
       width="137.27985"
       id="rect5226"
       style="display:inline;opacity:1;fill:#ff0000;fill-opacity:1;stroke:none" />
    <rect
       y="680.927"
       x="137.58209"
       height="127.07719"
       width="5.9154763"
       id="rect5228"
       style="display:inline;opacity:1;fill:#ff0000;fill-opacity:1;stroke:none" />
    <rect
       style="display:inline;opacity:1;fill:#ff0000;fill-opacity:1;stroke:none"
       id="rect5230"
       width="5.9154763"
       height="69.565063"
       x="137.58209"
       y="-2.6202095" />
    <path
       style="display:inline;opacity:1;fill:#ffff00;fill-opacity:1;stroke:none"
       d="m 342.41081,674.46349 -40.86739,9.41458 0,16.12011 40.86739,9.41458 185.91875,0 0,-9.41458 0,-16.12011 0,-9.41458 -185.91875,0 z"
       id="rect5232"
       inkscape:connector-curvature="0" />
    <rect
       style="display:inline;opacity:1;fill:#ff0000;fill-opacity:1;stroke:none"
       id="rect5238"
       width="7.5473289"
       height="97.077591"
       x="-87.715988"
       y="797.21094" />
    <rect
       transform="scale(-1,-1)"
       style="display:inline;opacity:1;fill:#ff0000;fill-opacity:1;stroke:none"
       id="rect5242"
       width="8.4637032"
       height="907.50952"
       x="298.78116"
       y="-895.7489" />
    <rect
       y="-895.7489"
       x="118.10619"
       height="8.46"
       width="183.83519"
       id="rect5246"
       style="display:inline;opacity:1;fill:#ff0000;fill-opacity:1;stroke:none"
       transform="scale(-1,-1)" />
    <rect
       transform="scale(-1,-1)"
       style="display:inline;opacity:1;fill:#ff0000;fill-opacity:1;stroke:none"
       id="rect5248"
       width="10.663774"
       height="8.46"
       x="80.168655"
       y="-895.7489" />
    <rect
       style="display:inline;opacity:1;fill:#ff0000;fill-opacity:1;stroke:none"
       id="rect5250"
       width="16.324558"
       height="6.9175611"
       x="-84.421463"
       y="797.21094" />
    <rect
       y="797.21094"
       x="7.8902588"
       height="6.9175611"
       width="16.324558"
       id="rect5252"
       style="display:inline;opacity:1;fill:#ff0000;fill-opacity:1;stroke:none" />
    <rect
       style="display:inline;opacity:1;fill:#ff0000;fill-opacity:1;stroke:none"
       id="rect5254"
       width="56.13398"
       height="6.2149119"
       x="-302.99429"
       y="46.952755" />
    <rect
       y="-11.760606"
       x="-248.6707"
       height="6.9175611"
       width="27.286572"
       id="rect5256"
       style="display:inline;opacity:1;fill:#ff0000;fill-opacity:1;stroke:none" />
    <rect
       style="display:inline;opacity:1;fill:#ff0000;fill-opacity:1;stroke:none"
       id="rect5258"
       width="27.286572"
       height="6.9175611"
       x="-11.760606"
       y="243.5966"
       transform="matrix(0,1,-1,0,0,0)" />
    <rect
       style="display:inline;opacity:1;fill:#ff0000;fill-opacity:1;stroke:none"
       id="rect5260"
       width="18.44887"
       height="6.9175611"
       x="-209.60088"
       y="-11.760606" />
    <rect
       style="display:inline;opacity:1;fill:#ff0000;fill-opacity:1;stroke:none"
       id="rect5268"
       width="131.4257"
       height="6.9175611"
       x="-88.672256"
       y="-11.760606" />
    <rect
       y="-11.760606"
       x="115.0011"
       height="6.9175611"
       width="35.853809"
       id="rect5270"
       style="display:inline;opacity:1;fill:#ff0000;fill-opacity:1;stroke:none" />
    <rect
       y="-11.760606"
       x="-179.36877"
       height="6.9175611"
       width="18.44887"
       id="rect5272"
       style="display:inline;opacity:1;fill:#ff0000;fill-opacity:1;stroke:none" />
    <rect
       style="display:inline;opacity:1;fill:#ff0000;fill-opacity:1;stroke:none"
       id="rect5274"
       width="18.44887"
       height="6.9175611"
       x="-149.13661"
       y="-11.760606" />
    <rect
       y="-11.760606"
       x="-118.90443"
       height="6.9175611"
       width="18.44887"
       id="rect5276"
       style="display:inline;opacity:1;fill:#ff0000;fill-opacity:1;stroke:none" />
    <rect
       y="-11.760606"
       x="54.536743"
       height="6.9175611"
       width="18.44887"
       id="rect5278"
       style="display:inline;opacity:1;fill:#ff0000;fill-opacity:1;stroke:none" />
    <rect
       style="display:inline;opacity:1;fill:#ff0000;fill-opacity:1;stroke:none"
       id="rect5280"
       width="18.44887"
       height="6.9175611"
       x="84.768921"
       y="-11.760606" />
    <rect
       style="display:inline;opacity:1;fill:#ff0000;fill-opacity:1;stroke:none"
       id="rect5282"
       width="6.3464279"
       height="6.3464303"
       x="-89.495712"
       y="-174.72408"
       transform="scale(1,-1)" />
    <rect
       transform="scale(1,-1)"
       y="-355.20673"
       x="-89.495712"
       height="6.3464303"
       width="6.3464279"
       id="rect5284"
       style="display:inline;opacity:1;fill:#ff0000;fill-opacity:1;stroke:none" />
    <rect
       style="display:inline;opacity:1;fill:#ff0000;fill-opacity:1;stroke:none"
       id="rect5286"
       width="6.3464279"
       height="6.3464303"
       x="-89.495712"
       y="-535.68939"
       transform="scale(1,-1)" />
    <rect
       transform="scale(1,-1)"
       y="-716.17206"
       x="-89.495712"
       height="6.3464303"
       width="6.3464279"
       id="rect5288"
       style="display:inline;opacity:1;fill:#ff0000;fill-opacity:1;stroke:none" />
    <rect
       transform="scale(1,-1)"
       y="-8.5630178"
       x="-89.495712"
       height="6.3464303"
       width="6.3464279"
       id="rect5290"
       style="display:inline;opacity:1;fill:#ff0000;fill-opacity:1;stroke:none" />
    <rect
       transform="matrix(0,1,-1,0,0,0)"
       y="243.5966"
       x="42.098507"
       height="6.9175611"
       width="11.420498"
       id="rect5292"
       style="display:inline;opacity:1;fill:#ff0000;fill-opacity:1;stroke:none" />
    <rect
       style="display:inline;opacity:1;fill:#ff0000;fill-opacity:1;stroke:none"
       id="rect5294"
       width="4.4876032"
       height="53.607162"
       x="167.24281"
       y="246.99919"
       transform="matrix(0,1,-1,0,0,0)" />
    <rect
       transform="matrix(0,1,-1,0,0,0)"
       y="245.34691"
       x="99.520798"
       height="55.259521"
       width="4.4876032"
       id="rect5296"
       style="display:inline;opacity:1;fill:#ff0000;fill-opacity:1;stroke:none" />
    <rect
       style="display:inline;opacity:1;fill:#ff0000;fill-opacity:1;stroke:none"
       id="rect5298"
       width="4.4876032"
       height="5.079957"
       x="243.5966"
       y="-58.598965"
       transform="scale(-1,-1)" />
    <rect
       transform="scale(-1,-1)"
       y="-141.41565"
       x="243.5966"
       height="59.339161"
       width="4.4876032"
       id="rect5300"
       style="display:inline;opacity:1;fill:#ff0000;fill-opacity:1;stroke:none" />
    <rect
       style="display:inline;opacity:1;fill:#ff0000;fill-opacity:1;stroke:none"
       id="rect5302"
       width="4.4876032"
       height="6.5078311"
       x="243.5966"
       y="-171.73042"
       transform="scale(-1,-1)" />
    <rect
       style="display:inline;opacity:1;fill:#ff0000;fill-opacity:1;stroke:none"
       id="rect5304"
       width="4.4876032"
       height="9.8053856"
       x="819.69263"
       y="1041.5492" />
    <rect
       style="display:inline;opacity:1;fill:#ff0000;fill-opacity:1;stroke:none"
       id="rect5307"
       width="10.588978"
       height="10.119285"
       x="780.58887"
       y="1040.6915" />
    <rect
       style="display:inline;opacity:1;fill:#ff0000;fill-opacity:1;stroke:none"
       id="rect5309"
       width="4.4876032"
       height="52.811741"
       x="988.97955"
       y="-676.58221"
       transform="matrix(0,1,-1,0,0,0)" />
    <rect
       transform="matrix(0,1,-1,0,0,0)"
       y="-780.58887"
       x="1063.9828"
       height="135.7597"
       width="12.502117"
       id="rect5311"
       style="display:inline;opacity:1;fill:#ff0000;fill-opacity:1;stroke:none" />
    <rect
       transform="scale(-1,-1)"
       y="-1074.0604"
       x="-707.17474"
       height="84.22496"
       width="4.4876032"
       id="rect5313"
       style="display:inline;opacity:1;fill:#ff0000;fill-opacity:1;stroke:none" />
    <rect
       transform="matrix(0,1,-1,0,0,0)"
       y="-707.17474"
       x="988.97955"
       height="6.8001275"
       width="4.4876032"
       id="rect5315"
       style="display:inline;opacity:1;fill:#ff0000;fill-opacity:1;stroke:none" />
    <rect
       style="display:inline;opacity:1;fill:#ff0000;fill-opacity:1;stroke:none"
       id="rect5317"
       width="18.76634"
       height="3.4676929"
       x="610.36621"
       y="57.517712" />
    <rect
       y="57.517696"
       x="684.5531"
       height="3.4676929"
       width="18.76634"
       id="rect5319"
       style="display:inline;opacity:1;fill:#ff0000;fill-opacity:1;stroke:none" />
    <rect
       transform="matrix(0,-1,-1,0,0,0)"
       y="-188.08557"
       x="-176.57051"
       height="4.5"
       width="85.965271"
       id="rect5386"
       style="display:inline;opacity:1;fill:#ff0000;fill-opacity:1;stroke:none" />
    <rect
       y="-2.6202095"
       x="196.73688"
       height="60.910843"
       width="5.9154763"
       id="rect5388"
       style="display:inline;opacity:1;fill:#ff0000;fill-opacity:1;stroke:none" />
    <rect
       style="display:inline;opacity:1;fill:#ff0000;fill-opacity:1;stroke:none"
       id="rect5390"
       width="5.9154763"
       height="23.697689"
       x="-58.29063"
       y="173.03918"
       transform="matrix(0,-1,1,0,0,0)" />
  </g>
</svg>
