<?xml version="1.0" encoding="UTF-8" standalone="no"?>
<!-- Created with Inkscape (http://www.inkscape.org/) -->

<svg
   xmlns:dc="http://purl.org/dc/elements/1.1/"
   xmlns:cc="http://creativecommons.org/ns#"
   xmlns:rdf="http://www.w3.org/1999/02/22-rdf-syntax-ns#"
   xmlns:svg="http://www.w3.org/2000/svg"
   xmlns="http://www.w3.org/2000/svg"
   xmlns:sodipodi="http://sodipodi.sourceforge.net/DTD/sodipodi-0.dtd"
   xmlns:inkscape="http://www.inkscape.org/namespaces/inkscape"
   width="1500"
   height="2500"
   viewBox="0 0 1499.9999 2500"
   id="svg4238"
   version="1.1"
   inkscape:version="0.91 r13725"
   sodipodi:docname="2DFloorPlan.svg">
  <defs
     id="defs4240" />
  <sodipodi:namedview
     id="base"
     pagecolor="#ffffff"
     bordercolor="#666666"
     borderopacity="1.0"
     inkscape:pageopacity="0.0"
     inkscape:pageshadow="2"
     inkscape:zoom="0.16"
     inkscape:cx="-20.3567"
     inkscape:cy="872.01528"
     inkscape:document-units="px"
     inkscape:current-layer="layer1"
     showgrid="false"
     fit-margin-top="0"
     fit-margin-left="0"
     fit-margin-right="0"
     fit-margin-bottom="0"
     units="px"
     inkscape:window-width="1366"
     inkscape:window-height="705"
     inkscape:window-x="-8"
     inkscape:window-y="-8"
     inkscape:window-maximized="1" />
  <metadata
     id="metadata4243">
    <rdf:RDF>
      <cc:Work
         rdf:about="">
        <dc:format>image/svg+xml</dc:format>
        <dc:type
           rdf:resource="http://purl.org/dc/dcmitype/StillImage" />
        <dc:title></dc:title>
      </cc:Work>
    </rdf:RDF>
  </metadata>
  <g
     inkscape:label="Layer 1"
     inkscape:groupmode="layer"
     id="layer1"
     transform="translate(362.71531,600.9709)">
    <g
       id="g4135"
       transform="translate(0,-98.135935)">
      <path
         d="m 201.70075,963.4001 0,-5.43579 21.77604,0 0,5.43579 z m 21.77604,-55.97157 5.43582,0 0,55.97157 -5.43582,0 z m -7.94976,164.66017 0,-78.99439 -4.13509,0 0,78.99439 z m 456.20893,-109.39886 17.24463,0 0,3.18651 -17.24463,0 z m -68.17108,2e-5 17.24463,0 0,3.18649 -17.24463,0 z m 88.95839,855.92964 0,4.1237 -6.24868,0 0,-4.1237 z m 0,78.1816 -4.1237,0 0,-77.3951 4.1237,0 z m 67.46104,-9.2604 0,11.4883 -124.75104,0 0,-11.4883 z m -95.5728,-68.9212 0,4.1237 -48.52928,0 0,-4.1237 z m 95.5728,47.5187 9.73024,0 0,9.2986 -9.73024,0 z m 35.93278,0.788 4.1237,0 0,9.0103 -4.1237,0 z m -977.06713,-799.2851 -4.12371,0 0,-5.9802 4.12371,0 z m 0,-27.8566 -4.12371,0 0,-54.52734 4.12371,0 z m 0,-76.10107 -4.12371,0 0,-4.66802 4.12371,0 z m -1.60837,37.60347 0,4.1237 -50.77851,0 0,-4.1237 z m -1.51832,62.2304 0,4.1237 -49.2601,0 0,-4.1237 z m 3.12669,-114.99631 0,10.49442 -6.35656,0 0,-10.49442 z m 141.604854,-30.81608 5.83177,0 0,-5.8318 -5.83177,0 z m 0,650.22899 5.83177,0 0,-5.8318 -5.83177,0 z m 0,-165.8473 5.83177,0 0,-5.8317 -5.83177,0 z m 0,-165.8473 5.83177,0 0,-5.8318 -5.83177,0 z m 0,-165.8473 5.83177,0 0,-5.8318 -5.83177,0 z m 160.133476,-171.36268 16.95288,0 0,6.35662 -16.95288,0 z m -27.780578,0 16.952788,0 0,6.35662 -16.952788,0 z m -159.376848,0 16.95288,0 0,6.35662 -16.95288,0 z m -27.78067,0 16.95288,0 0,6.35662 -16.95288,0 z m -27.780584,0 16.95279,0 0,6.35662 -16.95279,0 z m 270.49935,0 32.94641,0 0,6.35662 -32.94641,0 z m -187.157426,0 120.768386,0 0,6.35662 -120.768386,0 z m -111.122504,0 16.95279,0 0,6.35662 -16.95279,0 z m -31.23907,0 0,25.0739 -6.35656,0 0,-25.0739 z m -4.66265,0 25.07393,0 0,6.35662 -25.07393,0 z m -49.91849,53.95229 51.58209,0 0,5.71095 -51.58209,0 z m 285.674954,689.41979 15.00075,0 0,6.3566 -15.00075,0 z m -84.82614,0 15.00075,0 0,6.3566 -15.00075,0 z m 3.90794,90.5475 -9.79907,0 0,-7.774 9.79907,0 z m -34.86124,0 -168.927904,0 0,-7.774 168.927904,0 z m -166.023964,0 -7.77738,0 0,-833.91956 7.77738,0 z m 193.949824,-90.5475 6.93538,0 0,89.2056 -6.93538,0 z m 395.247796,-112.7939 -37.55346,8.6511 0,14.8129 37.55346,8.6512 170.84264,0 0,-8.6512 0,-14.8129 0,-8.6511 -170.84264,0 z m -188.21913,-622.17897 5.43582,0 0,63.92402 -5.43582,0 z m 0,628.11837 5.43582,0 0,116.7725 -5.43582,0 z m 92.56952,103.668 126.14787,0 0,6.3566 -126.14787,0 z m -109.15805,3.1865 18.18183,0 0,6.3566 -18.18183,0 z m 760.67596,0.064 0,7.7773 -14.93256,0 0,-7.7773 z m 56.98437,-399.3301 0,-6.8168 36.47504,0 0,6.8168 z m 0,2.6509 0,-9.4677 4.13509,0 0,9.4677 z m 0,117.6447 0,-92.2485 4.13509,0 0,92.2485 z m -281.21007,-453.79904 6.37623,0 0,56.24374 -6.37623,0 z m -91.79193,-10.60326 6.37622,0 0,66.84701 -6.37622,0 z m -318.84908,8.6223 17.24454,0 0,5.43578 -17.24454,0 z m 205.32051,0 17.24454,0 0,5.43578 -17.24454,0 z m 205.3205,0 17.24454,0 0,5.43578 -17.24454,0 z m 205.3206,0 17.24454,0 0,5.43578 -17.24454,0 z m 102.66026,-8.6223 17.24455,0 0,17.80689 -17.24455,0 z m -205.32051,0 17.24454,0 0,17.80689 -17.24454,0 z m -205.3206,0 17.24454,0 0,17.80689 -17.24454,0 z m -205.32051,0 17.24454,0 0,17.80689 -17.24454,0 z m 633.20647,833.9196 -7.7774,0 0,-833.9196 7.7774,0 z m 0,-90.4828 0,7.7773 -17.05335,0 0,-7.7773 z m -199.8794,0 0,7.7773 -14.93266,0 0,-7.7773 z m -8.57591,0.3975 0,256.1581 -6.35666,0 0,-256.1581 z m -424.28463,249.2185 0,6.9469 103.17586,0 7.49628,0 275.00963,0 0,-6.9469 -275.00963,0 -7.49628,0 -103.17586,0 z m 6.9602,-251.7426 0,258.6822 -6.94696,0 0,-258.6822 z m -219.58888,-1.1246 41.42455,0 0,6.3565 -41.42455,0 z m -4.88447,5.0609 17.432,0 0,89.7678 -17.432,0 z m 5.16565,-478.2917 5.43582,0 0,319.3337 -5.43582,0 z m 0,-169.33367 5.43582,0 0,147.89767 -5.43582,0 z m 0.0322,-97.62113 23.77285,0 0,17.80689 -23.77285,0 z m -0.56154,661.4069 5.83177,0 0,-5.8317 -5.83177,0 z m 0,-165.8472 5.83177,0 0,-5.8319 -5.83177,0 z m 0,-165.8474 5.83177,0 0,-5.8318 -5.83177,0 z m 0,-165.8473 5.83177,0 0,-5.8318 -5.83177,0 z m 471.18247,833.9067 -4.1237,0 0,-77.3951 4.1237,0 z m -76.95356,-78.1816 0,4.1237 -176.36409,0 0,-4.1237 z m 32.53741,-90.3865 0,-4.1237 31.27096,0 0,4.1237 z m 52.43171,0 0,-4.1237 27.69237,0 0,4.1237 z m -61.70949,153.8649 51.83838,0 0,13.378 -51.83838,0 z m 0,-63.4784 4.1237,0 0,63.4784 -4.1237,0 z m 9.27778,-92.7872 4.1237,0 0,54.068 -4.1237,0 z m 164.62851,140.3059 6.94696,0 0,32.8909 -6.94696,0 z m -468.81436,-329.095 135.21393,0 0,17.2445 -135.21393,0 z m 300.85673,196.7381 5.83177,0 0,-5.8318 -5.83177,0 z m 205.3206,-165.8473 5.83177,0 0,-5.8319 -5.83177,0 z m -205.3206,0 5.83177,0 0,-5.8319 -5.83177,0 z m -205.32051,0 5.83177,0 0,-5.8319 -5.83177,0 z m 410.64111,-165.8473 5.83177,0 0,-5.8318 -5.83177,0 z m -205.3206,0 5.83177,0 0,-5.8318 -5.83177,0 z m -205.32051,0 5.83177,0 0,-5.8318 -5.83177,0 z m 410.64111,-165.8474 5.83177,0 0,-5.8318 -5.83177,0 z m -205.3206,0 5.83177,0 0,-5.8318 -5.83177,0 z m -205.32051,0 5.83177,0 0,-5.8318 -5.83177,0 z m 410.64111,-165.8473 5.83177,0 0,-5.8318 -5.83177,0 z m -205.3206,0 5.83177,0 0,-5.8318 -5.83177,0 z m -205.32051,0 5.83177,0 0,-5.8318 -5.83177,0 z m 433.18454,326.3606 0,-4.639 4.1351,0 0,4.639 z m 0,-29.2916 0,-4.6389 4.1351,0 0,4.6389 z m 104.44083,27.9661 0,-32.605 4.13509,0 0,32.605 z m 87.89972,3.7906 -87.89963,0 0,-4.1351 87.89963,0 z m -37.90551,-35.786 -49.46281,0 0,-4.4002 49.46281,0 z m -605.1317,-253.6219 0,-4.6389 -4.1351,0 0,4.6389 z m 0,-29.2915 0,-4.639 -4.1351,0 0,4.639 z m -109.0907,27.9661 0,-32.6051 -4.1351,0 0,32.6051 z m -87.3354,3.7906 87.3354,0 0,-4.1351 -87.3354,0 z m 34.50029,-36.0512 53.21003,0 0,-4.1351 -53.21003,0 z"
         style="display:inline;opacity:1;fill:#000000;fill-opacity:1;stroke:none"
         id="rect5390"
         inkscape:connector-curvature="0" />
      <path
         d="m 76.583427,-396.07655 17.24468,0 0,5.43576 -17.24468,0 z m 205.322103,0 17.24476,0 0,5.43576 -17.24476,0 z m 205.32209,0 17.24476,0 0,5.43576 -17.24476,0 z m 205.32209,0 17.24476,0 0,5.43576 -17.24476,0 z m 102.66104,-8.62238 17.24477,0 0,17.80705 -17.24477,0 z m -205.32209,0 17.24477,0 0,17.80705 -17.24477,0 z m -205.32209,0 17.24477,0 0,17.80705 -17.24477,0 z m -205.32208,0 17.24476,0 0,17.80705 -17.24476,0 z m 633.21121,833.92596 -7.77744,0 0,-833.92596 7.77744,0 z m 0,-7.77744 0,7.77744 -54.16511,0 0,-7.77744 z m -104.98848,0 0,7.77744 -105.32627,0 0,-7.77744 z m -103.46831,0 0,173.85148 -6.3567,0 0,-173.85148 z m -49.7646,167.49487 49.7646,0 0,6.35661 -49.7646,0 z m -272.54133,0 222.2117,0 0,6.35661 -222.2117,0 z m -101.96873,0 51.63901,0 0,6.35661 -51.63901,0 z m 6.3567,-164.97933 0,171.33594 -6.35661,0 0,-171.33594 z m -44.89113,0 44.89113,0 0,6.35661 -44.89113,0 z m -68.391503,0 17.05722,0 0,6.35661 -17.05722,0 z m -105.71755,0 60.3565,0 0,6.35661 -60.3565,0 z m 0,-83.41194 6.935343,0 0,89.76855 -6.935343,0 z m -4.967206,-337.4865295 5.435854,0 0,45.1736865 -5.435854,0 z m 0,77.1289345 5.435854,0 0,268.401245 -5.435854,0 z m 0,-476.495255 5.435854,0 0,367.012446 -5.435854,0 z m 0,0 15.932551,0 0,19.494 -15.932551,0 z m 6.935343,-8.39927 22.118241,0 0,17.80705 -22.118241,0 z m -2.216336,661.41197 5.831815,0 0,-5.83182 -5.831815,0 z m 0,-165.848543 5.831815,0 0,-5.831815 -5.831815,0 z m 0,-165.848624 5.831815,0 0,-5.831815 -5.831815,0 z m 0,-165.848633 5.831815,0 0,-5.83182 -5.831815,0 z m 507.822152,778.83917 0,4.12373 -77.39579,0 0,-4.12373 z m 0,-68.92181 0,4.12373 -77.39579,0 0,-4.12373 z m -81.05253,-44.57354 0,-4.12373 31.27121,0 0,4.12373 z m 52.43212,0 0,-4.12373 27.69258,0 0,4.12373 z m -61.70996,153.86613 16.8477,0 0,13.37796 -16.8477,0 z m 9.27784,-2.91591 4.12374,0 0,13.37797 -4.12374,0 z m 0,-78.19974 4.12374,0 0,55.79149 -4.12374,0 z m 0,-75.15115 4.12374,0 0,54.06834 -4.12374,0 z m 78.72987,-1.72306 4.12374,0 0,170.57268 -4.12374,0 z m -191.79939,-216.21282 0,19.87158 0,36.58438 3.24497,0 15.33434,0 86.23466,0 0,-5.05404 -86.23466,0 0,-28.429 86.98128,0 0,-3.10134 -32.62155,-19.87158 -54.35973,0 -18.57931,0 z m 22.53883,29.1452 120.90044,0 0,17.24467 -120.90044,0 z m 87.20155,196.73968 5.83181,0 0,-5.83182 -5.83181,0 z m 205.32209,-165.84863 5.83181,0 0,-5.83182 -5.83181,0 z m -205.32209,0 5.83181,0 0,-5.83182 -5.83181,0 z m -205.32209,0 5.83182,0 0,-5.83182 -5.83182,0 z m 410.64418,-165.848543 5.83181,0 0,-5.831907 -5.83181,0 z m -205.32209,0 5.83181,0 0,-5.831907 -5.83181,0 z m -205.32209,0 5.83182,0 0,-5.831907 -5.83182,0 z m 410.64418,-165.848624 5.83181,0 0,-5.831815 -5.83181,0 z m -205.32209,0 5.83181,0 0,-5.831815 -5.83181,0 z m -205.32209,0 5.83182,0 0,-5.831815 -5.83182,0 z m 410.64418,-165.848633 5.83181,0 0,-5.83182 -5.83181,0 z m -205.32209,0 5.83181,0 0,-5.83182 -5.83181,0 z m -205.32209,0 5.83182,0 0,-5.83182 -5.83182,0 z m 433.18778,326.363035 0,-4.638968 4.13513,0 0,4.638968 z m 0,-29.291767 0,-4.638969 4.13513,0 0,4.638969 z m 120.87674,27.966413 0,-32.60529 4.13513,0 0,32.60529 z m 4.13513,3.790533 -125.01196,0 0,-4.135126 125.01196,0 z m 0,-36.051321 -125.01196,0 0,-4.135126 125.01196,0 z M 167.43869,-193.917 l 0,-4.63896 -4.13513,0 0,4.63896 z m 0,-29.29176 0,-4.63897 -4.13513,0 0,4.63897 z m -128.936933,27.96632 0,-32.60529 -4.13512,0 0,32.60529 z m -4.13512,3.79062 133.072053,0 0,-4.13512 -133.072053,0 z m 0,-36.05132 133.072053,0 0,-4.13512 -133.072053,0 z"
         style="display:inline;opacity:1;fill:#000000;fill-opacity:1;stroke:none"
         id="rect4762"
         inkscape:connector-curvature="0" />
    </g>
  </g>
</svg>
