<?xml version="1.0" encoding="UTF-8" standalone="no"?>
<!-- Created with Inkscape (http://www.inkscape.org/) -->

<svg
   xmlns:dc="http://purl.org/dc/elements/1.1/"
   xmlns:cc="http://creativecommons.org/ns#"
   xmlns:rdf="http://www.w3.org/1999/02/22-rdf-syntax-ns#"
   xmlns:svg="http://www.w3.org/2000/svg"
   xmlns="http://www.w3.org/2000/svg"
   xmlns:sodipodi="http://sodipodi.sourceforge.net/DTD/sodipodi-0.dtd"
   xmlns:inkscape="http://www.inkscape.org/namespaces/inkscape"
   width="385.08932mm"
   height="307.12708mm"
   viewBox="0 0 1364.4897 1088.2455"
   id="svg5254"
   version="1.1"
   inkscape:version="0.91 r13725"
   sodipodi:docname="level1.svg">
  <defs
     id="defs5256" />
  <sodipodi:namedview
     id="base"
     pagecolor="#ffffff"
     bordercolor="#666666"
     borderopacity="1.0"
     inkscape:pageopacity="0.0"
     inkscape:pageshadow="2"
     inkscape:zoom="0.35"
     inkscape:cx="384.38773"
     inkscape:cy="621.26562"
     inkscape:document-units="px"
     inkscape:current-layer="layer1"
     showgrid="false"
     fit-margin-top="0"
     fit-margin-left="0"
     fit-margin-right="0"
     fit-margin-bottom="0"
     inkscape:window-width="1366"
     inkscape:window-height="705"
     inkscape:window-x="-8"
     inkscape:window-y="-8"
     inkscape:window-maximized="1" />
  <metadata
     id="metadata5259">
    <rdf:RDF>
      <cc:Work
         rdf:about="">
        <dc:format>image/svg+xml</dc:format>
        <dc:type
           rdf:resource="http://purl.org/dc/dcmitype/StillImage" />
        <dc:title></dc:title>
      </cc:Work>
    </rdf:RDF>
  </metadata>
  <g
     inkscape:label="Layer 1"
     inkscape:groupmode="layer"
     id="layer1"
     transform="translate(430.8163,-65.382248)">
    <rect
       style="display:inline;opacity:1;fill:#ff0000;fill-opacity:1;stroke:none"
       id="rect5086"
       width="57.905651"
       height="4.5"
       x="55.526531"
       y="-258.21338"
       transform="scale(1,-1)" />
    <rect
       transform="scale(1,-1)"
       y="-297.44583"
       x="17.981794"
       height="4.5"
       width="95.042374"
       id="rect5088"
       style="display:inline;opacity:1;fill:#ff0000;fill-opacity:1;stroke:none" />
    <rect
       style="display:inline;opacity:1;fill:#ff0000;fill-opacity:1;stroke:none"
       id="rect5090"
       width="35.482307"
       height="4.5"
       x="-293.32074"
       y="-113.02415"
       transform="matrix(0,-1,-1,0,0,0)" />
    <rect
       transform="matrix(0,-1,-1,0,0,0)"
       y="-231.74168"
       x="-262.88672"
       height="4.5"
       width="5.0482936"
       id="rect5092"
       style="display:inline;opacity:1;fill:#ff0000;fill-opacity:1;stroke:none" />
    <rect
       style="display:inline;opacity:1;fill:#ff0000;fill-opacity:1;stroke:none"
       id="rect5094"
       width="5.0482936"
       height="4.5"
       x="-294.76312"
       y="-231.74168"
       transform="matrix(0,-1,-1,0,0,0)" />
    <rect
       transform="scale(-1,-1)"
       y="-570.76617"
       x="-890.27368"
       height="4.7884741"
       width="53.827648"
       id="rect5096"
       style="display:inline;opacity:1;fill:#ff0000;fill-opacity:1;stroke:none" />
    <rect
       style="display:inline;opacity:1;fill:#ff0000;fill-opacity:1;stroke:none"
       id="rect5098"
       width="95.656387"
       height="4.5"
       x="-931.52417"
       y="-609.71021"
       transform="scale(-1,-1)" />
    <rect
       transform="matrix(0,-1,1,0,0,0)"
       y="835.86768"
       x="-605.58508"
       height="4.5"
       width="35.482307"
       id="rect5100"
       style="display:inline;opacity:1;fill:#ff0000;fill-opacity:1;stroke:none" />
    <rect
       style="display:inline;opacity:1;fill:#ff0000;fill-opacity:1;stroke:none"
       id="rect5102"
       width="5.0482936"
       height="4.5"
       x="-575.15106"
       y="722.21045"
       transform="matrix(0,-1,1,0,0,0)" />
    <rect
       transform="matrix(0,-1,1,0,0,0)"
       y="722.21045"
       x="-607.02747"
       height="4.5"
       width="5.0482936"
       id="rect5104"
       style="display:inline;opacity:1;fill:#ff0000;fill-opacity:1;stroke:none" />
    <rect
       transform="scale(1,-1)"
       y="-251.86693"
       x="250.79918"
       height="6.3464303"
       width="6.3464279"
       id="rect5106"
       style="display:inline;opacity:1;fill:#ff0000;fill-opacity:1;stroke:none" />
    <rect
       style="display:inline;opacity:1;fill:#ff0000;fill-opacity:1;stroke:none"
       id="rect5108"
       width="6.3464279"
       height="6.3464303"
       x="474.23837"
       y="-251.86693"
       transform="scale(1,-1)" />
    <rect
       transform="scale(1,-1)"
       y="-251.86693"
       x="697.67761"
       height="6.3464303"
       width="6.3464279"
       id="rect5110"
       style="display:inline;opacity:1;fill:#ff0000;fill-opacity:1;stroke:none" />
    <rect
       style="display:inline;opacity:1;fill:#ff0000;fill-opacity:1;stroke:none"
       id="rect5112"
       width="6.3464279"
       height="6.3464303"
       x="250.79918"
       y="-432.34961"
       transform="scale(1,-1)" />
    <rect
       transform="scale(1,-1)"
       y="-432.34961"
       x="474.23837"
       height="6.3464303"
       width="6.3464279"
       id="rect5114"
       style="display:inline;opacity:1;fill:#ff0000;fill-opacity:1;stroke:none" />
    <rect
       style="display:inline;opacity:1;fill:#ff0000;fill-opacity:1;stroke:none"
       id="rect5116"
       width="6.3464279"
       height="6.3464303"
       x="697.67761"
       y="-432.34961"
       transform="scale(1,-1)" />
    <rect
       transform="scale(1,-1)"
       y="-612.83228"
       x="250.79918"
       height="6.3464303"
       width="6.3464279"
       id="rect5118"
       style="display:inline;opacity:1;fill:#ff0000;fill-opacity:1;stroke:none" />
    <rect
       style="display:inline;opacity:1;fill:#ff0000;fill-opacity:1;stroke:none"
       id="rect5120"
       width="6.3464279"
       height="6.3464303"
       x="474.23837"
       y="-612.83228"
       transform="scale(1,-1)" />
    <rect
       transform="scale(1,-1)"
       y="-612.83228"
       x="697.67761"
       height="6.3464303"
       width="6.3464279"
       id="rect5122"
       style="display:inline;opacity:1;fill:#ff0000;fill-opacity:1;stroke:none" />
    <rect
       style="display:inline;opacity:1;fill:#ff0000;fill-opacity:1;stroke:none"
       id="rect5124"
       width="6.3464279"
       height="6.3464303"
       x="250.79918"
       y="-793.31494"
       transform="scale(1,-1)" />
    <rect
       transform="scale(1,-1)"
       y="-793.31494"
       x="474.23837"
       height="6.3464303"
       width="6.3464279"
       id="rect5126"
       style="display:inline;opacity:1;fill:#ff0000;fill-opacity:1;stroke:none" />
    <rect
       style="display:inline;opacity:1;fill:#ff0000;fill-opacity:1;stroke:none"
       id="rect5128"
       width="6.3464279"
       height="6.3464303"
       x="697.67761"
       y="-793.31494"
       transform="scale(1,-1)" />
    <rect
       style="display:inline;opacity:1;fill:#ff0000;fill-opacity:1;stroke:none"
       id="rect5130"
       width="6.3464279"
       height="6.3464303"
       x="474.23837"
       y="-973.79755"
       transform="scale(1,-1)" />
    <rect
       y="759.69812"
       x="146.83226"
       height="18.76634"
       width="147.14598"
       id="rect5132"
       style="display:inline;opacity:1;fill:#ffff00;fill-opacity:1;stroke:none" />
    <rect
       y="1117.8344"
       x="657.01746"
       height="35.793476"
       width="7.5599999"
       id="rect5136"
       style="display:inline;opacity:1;fill:#ff0000;fill-opacity:1;stroke:none" />
    <rect
       style="display:inline;opacity:1;fill:#ff0000;fill-opacity:1;stroke:none"
       id="rect5138"
       width="4.4876032"
       height="58.839245"
       x="477.8613"
       y="965.14716" />
    <rect
       y="1066.1224"
       x="467.76474"
       height="69.08007"
       width="4.4876032"
       id="rect5140"
       style="display:inline;opacity:1;fill:#ff0000;fill-opacity:1;stroke:none" />
    <rect
       y="1135.2025"
       x="467.76474"
       height="14.558475"
       width="56.412933"
       id="rect5144"
       style="display:inline;opacity:1;fill:#ff0000;fill-opacity:1;stroke:none" />
    <rect
       transform="matrix(0,-1,1,0,0,0)"
       y="534.91992"
       x="-967.75964"
       height="30.136076"
       width="4.4876032"
       id="rect5146"
       style="display:inline;opacity:1;fill:#ff0000;fill-opacity:1;stroke:none" />
    <rect
       style="display:inline;opacity:1;fill:#ff0000;fill-opacity:1;stroke:none"
       id="rect5148"
       width="4.4876032"
       height="34.030476"
       x="-967.75964"
       y="477.8613"
       transform="matrix(0,-1,1,0,0,0)" />
    <rect
       transform="matrix(0,1,-1,0,0,0)"
       y="-442.45255"
       x="1066.1224"
       height="191.92744"
       width="4.4876032"
       id="rect5150"
       style="display:inline;opacity:1;fill:#ff0000;fill-opacity:1;stroke:none" />
    <rect
       style="display:inline;opacity:1;fill:#ff0000;fill-opacity:1;stroke:none"
       id="rect5152"
       width="4.4876032"
       height="84.22496"
       x="-526.19696"
       y="-1151.2032"
       transform="scale(-1,-1)" />
    <rect
       style="display:inline;opacity:1;fill:#ff0000;fill-opacity:1;stroke:none"
       id="rect5154"
       width="6.3464279"
       height="6.3464303"
       x="13.434553"
       y="-243.70764"
       transform="scale(1,-1)" />
    <rect
       transform="scale(1,-1)"
       y="-424.19034"
       x="13.434553"
       height="6.3464303"
       width="6.3464279"
       id="rect5156"
       style="display:inline;opacity:1;fill:#ff0000;fill-opacity:1;stroke:none" />
    <rect
       style="display:inline;opacity:1;fill:#ff0000;fill-opacity:1;stroke:none"
       id="rect5158"
       width="6.3464279"
       height="6.3464303"
       x="13.434553"
       y="-604.67303"
       transform="scale(1,-1)" />
    <rect
       transform="scale(1,-1)"
       y="-785.1557"
       x="13.434553"
       height="6.3464303"
       width="6.3464279"
       id="rect5160"
       style="display:inline;opacity:1;fill:#ff0000;fill-opacity:1;stroke:none" />
    <rect
       y="65.382263"
       x="14.045698"
       height="19.378286"
       width="25.870712"
       id="rect5162"
       style="display:inline;opacity:1;fill:#ff0000;fill-opacity:1;stroke:none" />
    <rect
       y="171.61806"
       x="14.010664"
       height="160.94899"
       width="5.9154763"
       id="rect5166"
       style="display:inline;opacity:1;fill:#ff0000;fill-opacity:1;stroke:none" />
    <rect
       style="display:inline;opacity:1;fill:#ff0000;fill-opacity:1;stroke:none"
       id="rect5168"
       width="5.9154763"
       height="347.51358"
       x="14.010664"
       y="355.89481" />
    <rect
       y="876.39362"
       x="8.389143"
       height="97.689537"
       width="18.970324"
       id="rect5172"
       style="display:inline;opacity:1;fill:#ff0000;fill-opacity:1;stroke:none" />
    <rect
       style="display:inline;opacity:1;fill:#ff0000;fill-opacity:1;stroke:none"
       id="rect5174"
       width="45.080009"
       height="6.9175611"
       x="13.704695"
       y="870.88611" />
    <rect
       transform="matrix(0,1,-1,0,0,0)"
       y="-252.67137"
       x="872.10999"
       height="7.5599999"
       width="281.50986"
       id="rect5180"
       style="display:inline;opacity:1;fill:#ff0000;fill-opacity:1;stroke:none" />
    <path
       style="display:inline;opacity:1;fill:#ff0000;fill-opacity:1;stroke:none"
       d="m 245.09699,1146.0678 0,7.56 112.28066,0 8.15782,0 299.27803,0 0,-7.56 -299.27803,0 -8.15782,0 -112.28066,0 z"
       id="rect5182"
       inkscape:connector-curvature="0" />
    <rect
       transform="matrix(0,1,-1,0,0,0)"
       style="display:inline;opacity:1;fill:#ff0000;fill-opacity:1;stroke:none"
       id="rect5188"
       width="278.76294"
       height="6.9175611"
       x="874.85687"
       y="-706.82288" />
    <rect
       y="-716.15564"
       x="874.42419"
       height="16.250385"
       width="8.4637032"
       id="rect5190"
       style="display:inline;opacity:1;fill:#ff0000;fill-opacity:1;stroke:none"
       transform="matrix(0,1,-1,0,0,0)" />
    <rect
       transform="matrix(0,1,-1,0,0,0)"
       style="display:inline;opacity:1;fill:#ff0000;fill-opacity:1;stroke:none"
       id="rect5192"
       width="8.4637032"
       height="18.558176"
       x="874.42419"
       y="-933.67346" />
    <rect
       y="-972.89178"
       x="-933.67346"
       height="907.50952"
       width="8.4637032"
       id="rect5194"
       style="display:inline;opacity:1;fill:#ff0000;fill-opacity:1;stroke:none"
       transform="scale(-1,-1)" />
    <rect
       style="display:inline;opacity:1;fill:#ff0000;fill-opacity:1;stroke:none"
       id="rect5196"
       width="18.76634"
       height="19.378286"
       x="244.58922"
       y="65.382263" />
    <rect
       y="65.382263"
       x="468.02841"
       height="19.378286"
       width="18.76634"
       id="rect5198"
       style="display:inline;opacity:1;fill:#ff0000;fill-opacity:1;stroke:none" />
    <rect
       style="display:inline;opacity:1;fill:#ff0000;fill-opacity:1;stroke:none"
       id="rect5200"
       width="18.76634"
       height="19.378286"
       x="691.46765"
       y="65.382263" />
    <rect
       y="65.382263"
       x="914.90686"
       height="19.378286"
       width="18.76634"
       id="rect5202"
       style="display:inline;opacity:1;fill:#ff0000;fill-opacity:1;stroke:none" />
    <rect
       y="74.765442"
       x="803.18726"
       height="5.9154768"
       width="18.76634"
       id="rect5204"
       style="display:inline;opacity:1;fill:#ff0000;fill-opacity:1;stroke:none" />
    <rect
       style="display:inline;opacity:1;fill:#ff0000;fill-opacity:1;stroke:none"
       id="rect5206"
       width="18.76634"
       height="5.9154768"
       x="579.74799"
       y="74.765442" />
    <rect
       y="74.765442"
       x="356.30881"
       height="5.9154768"
       width="18.76634"
       id="rect5208"
       style="display:inline;opacity:1;fill:#ff0000;fill-opacity:1;stroke:none" />
    <rect
       style="display:inline;opacity:1;fill:#ff0000;fill-opacity:1;stroke:none"
       id="rect5210"
       width="18.76634"
       height="5.9154768"
       x="132.86961"
       y="74.765442" />
    <rect
       style="display:inline;opacity:1;fill:#ff0000;fill-opacity:1;stroke:none"
       id="rect5212"
       width="6.9389038"
       height="72.745987"
       x="479.85587"
       y="65.382263" />
    <rect
       y="76.921219"
       x="579.74799"
       height="61.207024"
       width="6.9389038"
       id="rect5214"
       style="display:inline;opacity:1;fill:#ff0000;fill-opacity:1;stroke:none" />
    <rect
       style="display:inline;opacity:1;fill:#ff0000;fill-opacity:1;stroke:none"
       id="rect5216"
       width="100.38897"
       height="4.5"
       x="-570.76617"
       y="885.77368"
       transform="matrix(0,-1,1,0,0,0)" />
    <rect
       transform="matrix(0,-1,1,0,0,0)"
       y="885.77368"
       x="-442.73975"
       height="4.5"
       width="10.303181"
       id="rect5218"
       style="display:inline;opacity:1;fill:#ff0000;fill-opacity:1;stroke:none" />
    <rect
       style="display:inline;opacity:1;fill:#ff0000;fill-opacity:1;stroke:none"
       id="rect5220"
       width="7.4184399"
       height="39.693836"
       x="-439.85501"
       y="885.77368"
       transform="matrix(0,-1,1,0,0,0)" />
    <rect
       transform="matrix(0,1,-1,0,0,0)"
       style="display:inline;opacity:1;fill:#ff0000;fill-opacity:1;stroke:none"
       id="rect5222"
       width="8.4637032"
       height="16.250385"
       x="874.42419"
       y="-823.76074" />
    <rect
       y="874.35382"
       x="-4.0417352"
       height="6.9175611"
       width="19.786247"
       id="rect5224"
       style="display:inline;opacity:1;fill:#ff0000;fill-opacity:1;stroke:none" />
    <rect
       y="870.88611"
       x="114.74907"
       height="6.9175611"
       width="137.27985"
       id="rect5226"
       style="display:inline;opacity:1;fill:#ff0000;fill-opacity:1;stroke:none" />
    <rect
       y="758.06989"
       x="14.010664"
       height="127.07719"
       width="5.9154763"
       id="rect5228"
       style="display:inline;opacity:1;fill:#ff0000;fill-opacity:1;stroke:none" />
    <rect
       style="display:inline;opacity:1;fill:#ff0000;fill-opacity:1;stroke:none"
       id="rect5230"
       width="5.9154763"
       height="69.565063"
       x="14.010664"
       y="74.522644" />
    <path
       style="display:inline;opacity:1;fill:#ffff00;fill-opacity:1;stroke:none"
       d="m 218.83938,751.60635 -40.86739,9.41458 0,16.12011 40.86739,9.41458 185.91875,0 0,-9.41458 0,-16.12011 0,-9.41458 -185.91875,0 z"
       id="rect5232"
       inkscape:connector-curvature="0" />
    <rect
       style="display:inline;opacity:1;fill:#ff0000;fill-opacity:1;stroke:none"
       id="rect5238"
       width="7.5473289"
       height="97.077591"
       x="-211.28741"
       y="874.35382" />
    <rect
       transform="scale(-1,-1)"
       style="display:inline;opacity:1;fill:#ff0000;fill-opacity:1;stroke:none"
       id="rect5242"
       width="8.4637032"
       height="907.50952"
       x="422.3526"
       y="-972.89178" />
    <rect
       y="-972.89178"
       x="241.67761"
       height="8.46"
       width="183.83519"
       id="rect5246"
       style="display:inline;opacity:1;fill:#ff0000;fill-opacity:1;stroke:none"
       transform="scale(-1,-1)" />
    <rect
       transform="scale(-1,-1)"
       style="display:inline;opacity:1;fill:#ff0000;fill-opacity:1;stroke:none"
       id="rect5248"
       width="10.663774"
       height="8.46"
       x="203.74008"
       y="-972.89178" />
    <rect
       style="display:inline;opacity:1;fill:#ff0000;fill-opacity:1;stroke:none"
       id="rect5250"
       width="16.324558"
       height="6.9175611"
       x="-207.99289"
       y="874.35382" />
    <rect
       y="874.35382"
       x="-115.68117"
       height="6.9175611"
       width="16.324558"
       id="rect5252"
       style="display:inline;opacity:1;fill:#ff0000;fill-opacity:1;stroke:none" />
    <rect
       style="display:inline;opacity:1;fill:#ff0000;fill-opacity:1;stroke:none"
       id="rect5254"
       width="56.13398"
       height="6.2149119"
       x="-426.56573"
       y="124.09561" />
    <rect
       y="65.382248"
       x="-372.24213"
       height="6.9175611"
       width="27.286572"
       id="rect5256"
       style="display:inline;opacity:1;fill:#ff0000;fill-opacity:1;stroke:none" />
    <rect
       style="display:inline;opacity:1;fill:#ff0000;fill-opacity:1;stroke:none"
       id="rect5258"
       width="27.286572"
       height="6.9175611"
       x="65.382248"
       y="367.16803"
       transform="matrix(0,1,-1,0,0,0)" />
    <rect
       style="display:inline;opacity:1;fill:#ff0000;fill-opacity:1;stroke:none"
       id="rect5260"
       width="18.44887"
       height="6.9175611"
       x="-333.1723"
       y="65.382248" />
    <rect
       style="display:inline;opacity:1;fill:#ff0000;fill-opacity:1;stroke:none"
       id="rect5268"
       width="131.4257"
       height="6.9175611"
       x="-212.24368"
       y="65.382248" />
    <rect
       y="65.382248"
       x="-8.5703297"
       height="6.9175611"
       width="35.853809"
       id="rect5270"
       style="display:inline;opacity:1;fill:#ff0000;fill-opacity:1;stroke:none" />
    <rect
       y="65.382248"
       x="-302.94019"
       height="6.9175611"
       width="18.44887"
       id="rect5272"
       style="display:inline;opacity:1;fill:#ff0000;fill-opacity:1;stroke:none" />
    <rect
       style="display:inline;opacity:1;fill:#ff0000;fill-opacity:1;stroke:none"
       id="rect5274"
       width="18.44887"
       height="6.9175611"
       x="-272.70804"
       y="65.382248" />
    <rect
       y="65.382248"
       x="-242.47586"
       height="6.9175611"
       width="18.44887"
       id="rect5276"
       style="display:inline;opacity:1;fill:#ff0000;fill-opacity:1;stroke:none" />
    <rect
       y="65.382248"
       x="-69.034683"
       height="6.9175611"
       width="18.44887"
       id="rect5278"
       style="display:inline;opacity:1;fill:#ff0000;fill-opacity:1;stroke:none" />
    <rect
       style="display:inline;opacity:1;fill:#ff0000;fill-opacity:1;stroke:none"
       id="rect5280"
       width="18.44887"
       height="6.9175611"
       x="-38.802509"
       y="65.382248" />
    <rect
       style="display:inline;opacity:1;fill:#ff0000;fill-opacity:1;stroke:none"
       id="rect5282"
       width="6.3464279"
       height="6.3464303"
       x="-213.06714"
       y="-251.86693"
       transform="scale(1,-1)" />
    <rect
       transform="scale(1,-1)"
       y="-432.34961"
       x="-213.06714"
       height="6.3464303"
       width="6.3464279"
       id="rect5284"
       style="display:inline;opacity:1;fill:#ff0000;fill-opacity:1;stroke:none" />
    <rect
       style="display:inline;opacity:1;fill:#ff0000;fill-opacity:1;stroke:none"
       id="rect5286"
       width="6.3464279"
       height="6.3464303"
       x="-213.06714"
       y="-612.83228"
       transform="scale(1,-1)" />
    <rect
       transform="scale(1,-1)"
       y="-793.31494"
       x="-213.06714"
       height="6.3464303"
       width="6.3464279"
       id="rect5288"
       style="display:inline;opacity:1;fill:#ff0000;fill-opacity:1;stroke:none" />
    <rect
       transform="scale(1,-1)"
       y="-85.705872"
       x="-213.06714"
       height="6.3464303"
       width="6.3464279"
       id="rect5290"
       style="display:inline;opacity:1;fill:#ff0000;fill-opacity:1;stroke:none" />
    <rect
       transform="matrix(0,1,-1,0,0,0)"
       y="367.16803"
       x="119.24136"
       height="6.9175611"
       width="11.420498"
       id="rect5292"
       style="display:inline;opacity:1;fill:#ff0000;fill-opacity:1;stroke:none" />
    <rect
       style="display:inline;opacity:1;fill:#ff0000;fill-opacity:1;stroke:none"
       id="rect5294"
       width="4.4876032"
       height="53.607162"
       x="244.38567"
       y="370.57062"
       transform="matrix(0,1,-1,0,0,0)" />
    <rect
       transform="matrix(0,1,-1,0,0,0)"
       y="368.91833"
       x="176.66365"
       height="55.259521"
       width="4.4876032"
       id="rect5296"
       style="display:inline;opacity:1;fill:#ff0000;fill-opacity:1;stroke:none" />
    <rect
       style="display:inline;opacity:1;fill:#ff0000;fill-opacity:1;stroke:none"
       id="rect5298"
       width="4.4876032"
       height="5.079957"
       x="367.16803"
       y="-135.74182"
       transform="scale(-1,-1)" />
    <rect
       transform="scale(-1,-1)"
       y="-218.5585"
       x="367.16803"
       height="59.339161"
       width="4.4876032"
       id="rect5300"
       style="display:inline;opacity:1;fill:#ff0000;fill-opacity:1;stroke:none" />
    <rect
       style="display:inline;opacity:1;fill:#ff0000;fill-opacity:1;stroke:none"
       id="rect5302"
       width="4.4876032"
       height="6.5078311"
       x="367.16803"
       y="-248.87328"
       transform="scale(-1,-1)" />
    <rect
       style="display:inline;opacity:1;fill:#ff0000;fill-opacity:1;stroke:none"
       id="rect5304"
       width="4.4876032"
       height="9.8053856"
       x="696.12122"
       y="1118.692" />
    <rect
       style="display:inline;opacity:1;fill:#ff0000;fill-opacity:1;stroke:none"
       id="rect5307"
       width="10.588978"
       height="10.119285"
       x="657.01746"
       y="1117.8344" />
    <rect
       style="display:inline;opacity:1;fill:#ff0000;fill-opacity:1;stroke:none"
       id="rect5309"
       width="4.4876032"
       height="52.811741"
       x="1066.1224"
       y="-553.0108"
       transform="matrix(0,1,-1,0,0,0)" />
    <rect
       transform="matrix(0,1,-1,0,0,0)"
       y="-657.01746"
       x="1141.1256"
       height="135.7597"
       width="12.502117"
       id="rect5311"
       style="display:inline;opacity:1;fill:#ff0000;fill-opacity:1;stroke:none" />
    <rect
       transform="scale(-1,-1)"
       y="-1151.2032"
       x="-583.60333"
       height="84.22496"
       width="4.4876032"
       id="rect5313"
       style="display:inline;opacity:1;fill:#ff0000;fill-opacity:1;stroke:none" />
    <rect
       transform="matrix(0,1,-1,0,0,0)"
       y="-583.60333"
       x="1066.1224"
       height="6.8001275"
       width="4.4876032"
       id="rect5315"
       style="display:inline;opacity:1;fill:#ff0000;fill-opacity:1;stroke:none" />
    <rect
       style="display:inline;opacity:1;fill:#ff0000;fill-opacity:1;stroke:none"
       id="rect5317"
       width="18.76634"
       height="3.4676929"
       x="486.79477"
       y="134.66057" />
    <rect
       y="134.66055"
       x="560.98169"
       height="3.4676929"
       width="18.76634"
       id="rect5319"
       style="display:inline;opacity:1;fill:#ff0000;fill-opacity:1;stroke:none" />
    <rect
       transform="matrix(0,-1,-1,0,0,0)"
       y="-64.514145"
       x="-253.71336"
       height="4.5"
       width="85.965271"
       id="rect5386"
       style="display:inline;opacity:1;fill:#ff0000;fill-opacity:1;stroke:none" />
    <rect
       y="74.522644"
       x="73.165451"
       height="60.910843"
       width="5.9154763"
       id="rect5388"
       style="display:inline;opacity:1;fill:#ff0000;fill-opacity:1;stroke:none" />
    <rect
       style="display:inline;opacity:1;fill:#ff0000;fill-opacity:1;stroke:none"
       id="rect5390"
       width="5.9154763"
       height="23.697689"
       x="-135.43349"
       y="49.467754"
       transform="matrix(0,-1,1,0,0,0)" />
  </g>
</svg>
