<?xml version="1.0" encoding="UTF-8" standalone="no"?>
<!-- Created with Inkscape (http://www.inkscape.org/) -->

<svg
   xmlns:dc="http://purl.org/dc/elements/1.1/"
   xmlns:cc="http://creativecommons.org/ns#"
   xmlns:rdf="http://www.w3.org/1999/02/22-rdf-syntax-ns#"
   xmlns:svg="http://www.w3.org/2000/svg"
   xmlns="http://www.w3.org/2000/svg"
   xmlns:sodipodi="http://sodipodi.sourceforge.net/DTD/sodipodi-0.dtd"
   xmlns:inkscape="http://www.inkscape.org/namespaces/inkscape"
   width="261.16119mm"
   height="307.12482mm"
   viewBox="0 0 925.37431 1088.2375"
   id="svg4461"
   version="1.1"
   inkscape:version="0.91 r13725"
   sodipodi:docname="level2.svg">
  <defs
     id="defs4463" />
  <sodipodi:namedview
     id="base"
     pagecolor="#ffffff"
     bordercolor="#666666"
     borderopacity="1.0"
     inkscape:pageopacity="0.0"
     inkscape:pageshadow="2"
     inkscape:zoom="0.35"
     inkscape:cx="41.258554"
     inkscape:cy="544.11878"
     inkscape:document-units="px"
     inkscape:current-layer="layer1"
     showgrid="false"
     fit-margin-top="0"
     fit-margin-left="0"
     fit-margin-right="0"
     fit-margin-bottom="0"
     inkscape:window-width="1366"
     inkscape:window-height="705"
     inkscape:window-x="-8"
     inkscape:window-y="-8"
     inkscape:window-maximized="1" />
  <metadata
     id="metadata4466">
    <rdf:RDF>
      <cc:Work
         rdf:about="">
        <dc:format>image/svg+xml</dc:format>
        <dc:type
           rdf:resource="http://purl.org/dc/dcmitype/StillImage" />
        <dc:title></dc:title>
      </cc:Work>
    </rdf:RDF>
  </metadata>
  <g
     inkscape:label="Layer 1"
     inkscape:groupmode="layer"
     id="layer1"
     transform="translate(87.687125,11.756567)">
    <g
       id="g5321"
       transform="translate(-1333.609,398.90484)"
       style="display:inline;opacity:1;fill:#00ff00">
      <rect
         style="display:inline;opacity:1;fill:#00ff00;fill-opacity:1;stroke:none"
         id="rect4766"
         width="144.81398"
         height="4.5"
         x="1324.5504"
         y="245.47057"
         transform="matrix(1,0,0,-1,0,27.64025)" />
      <rect
         transform="matrix(1,0,0,-1,0,27.64025)"
         y="206.2381"
         x="1324.5504"
         height="4.5"
         width="144.81398"
         id="rect4768"
         style="display:inline;opacity:1;fill:#00ff00;fill-opacity:1;stroke:none" />
      <rect
         style="display:inline;opacity:1;fill:#00ff00;fill-opacity:1;stroke:none"
         id="rect4770"
         width="35.482307"
         height="4.5"
         x="210.36319"
         y="-1329.0504"
         transform="matrix(0,-1,-1,0,0,27.64025)" />
      <rect
         transform="matrix(0,-1,-1,0,0,27.64025)"
         y="-1469.3644"
         x="240.79721"
         height="4.5"
         width="5.0482936"
         id="rect4772"
         style="display:inline;opacity:1;fill:#00ff00;fill-opacity:1;stroke:none" />
      <rect
         style="display:inline;opacity:1;fill:#00ff00;fill-opacity:1;stroke:none"
         id="rect4774"
         width="5.0482936"
         height="4.5"
         x="208.92082"
         y="-1469.3644"
         transform="matrix(0,-1,-1,0,0,27.64025)" />
      <rect
         transform="matrix(-1,0,0,-1,0,27.64025)"
         y="-66.793747"
         x="-2095.8757"
         height="4.5"
         width="136.04276"
         id="rect4776"
         style="display:inline;opacity:1;fill:#00ff00;fill-opacity:1;stroke:none" />
      <rect
         style="display:inline;opacity:1;fill:#00ff00;fill-opacity:1;stroke:none"
         id="rect4778"
         width="136.04276"
         height="4.5"
         x="-2095.8757"
         y="-106.02621"
         transform="matrix(-1,0,0,-1,0,27.64025)" />
      <rect
         transform="matrix(0,-1,1,0,0,27.64025)"
         y="2091.3757"
         x="-101.90112"
         height="4.5"
         width="35.482307"
         id="rect4780"
         style="display:inline;opacity:1;fill:#00ff00;fill-opacity:1;stroke:none" />
      <rect
         style="display:inline;opacity:1;fill:#00ff00;fill-opacity:1;stroke:none"
         id="rect4782"
         width="5.0482936"
         height="4.5"
         x="-71.467102"
         y="1959.8331"
         transform="matrix(0,-1,1,0,0,27.64025)" />
      <rect
         transform="matrix(0,-1,1,0,0,27.64025)"
         y="1959.8331"
         x="-103.34349"
         height="4.5"
         width="5.0482936"
         id="rect4784"
         style="display:inline;opacity:1;fill:#00ff00;fill-opacity:1;stroke:none" />
      <rect
         transform="matrix(1,0,0,-1,0,27.64025)"
         y="251.817"
         x="1488.4219"
         height="6.3464303"
         width="6.3464279"
         id="rect4764"
         style="display:inline;opacity:1;fill:#00ff00;fill-opacity:1;stroke:none" />
      <rect
         style="display:inline;opacity:1;fill:#00ff00;fill-opacity:1;stroke:none"
         id="rect4786"
         width="6.3464279"
         height="6.3464303"
         x="1711.8611"
         y="251.817"
         transform="matrix(1,0,0,-1,0,27.64025)" />
      <rect
         transform="matrix(1,0,0,-1,0,27.64025)"
         y="251.817"
         x="1935.3003"
         height="6.3464303"
         width="6.3464279"
         id="rect4788"
         style="display:inline;opacity:1;fill:#00ff00;fill-opacity:1;stroke:none" />
      <rect
         style="display:inline;opacity:1;fill:#00ff00;fill-opacity:1;stroke:none"
         id="rect4815"
         width="6.3464279"
         height="6.3464303"
         x="1488.4219"
         y="71.334343"
         transform="matrix(1,0,0,-1,0,27.64025)" />
      <rect
         transform="matrix(1,0,0,-1,0,27.64025)"
         y="71.334343"
         x="1711.8611"
         height="6.3464303"
         width="6.3464279"
         id="rect4817"
         style="display:inline;opacity:1;fill:#00ff00;fill-opacity:1;stroke:none" />
      <rect
         style="display:inline;opacity:1;fill:#00ff00;fill-opacity:1;stroke:none"
         id="rect4819"
         width="6.3464279"
         height="6.3464303"
         x="1935.3003"
         y="71.334343"
         transform="matrix(1,0,0,-1,0,27.64025)" />
      <rect
         transform="matrix(1,0,0,-1,0,27.64025)"
         y="-109.14833"
         x="1488.4219"
         height="6.3464303"
         width="6.3464279"
         id="rect4823"
         style="display:inline;opacity:1;fill:#00ff00;fill-opacity:1;stroke:none" />
      <rect
         style="display:inline;opacity:1;fill:#00ff00;fill-opacity:1;stroke:none"
         id="rect4825"
         width="6.3464279"
         height="6.3464303"
         x="1711.8611"
         y="-109.14833"
         transform="matrix(1,0,0,-1,0,27.64025)" />
      <rect
         transform="matrix(1,0,0,-1,0,27.64025)"
         y="-109.14833"
         x="1935.3003"
         height="6.3464303"
         width="6.3464279"
         id="rect4827"
         style="display:inline;opacity:1;fill:#00ff00;fill-opacity:1;stroke:none" />
      <rect
         style="display:inline;opacity:1;fill:#00ff00;fill-opacity:1;stroke:none"
         id="rect4831"
         width="6.3464279"
         height="6.3464303"
         x="1488.4219"
         y="-289.63098"
         transform="matrix(1,0,0,-1,0,27.64025)" />
      <rect
         transform="matrix(1,0,0,-1,0,27.64025)"
         y="-289.63098"
         x="1711.8611"
         height="6.3464303"
         width="6.3464279"
         id="rect4833"
         style="display:inline;opacity:1;fill:#00ff00;fill-opacity:1;stroke:none" />
      <rect
         style="display:inline;opacity:1;fill:#00ff00;fill-opacity:1;stroke:none"
         id="rect4835"
         width="6.3464279"
         height="6.3464303"
         x="1935.3003"
         y="-289.63098"
         transform="matrix(1,0,0,-1,0,27.64025)" />
      <rect
         style="display:inline;opacity:1;fill:#00ff00;fill-opacity:1;stroke:none"
         id="rect4841"
         width="6.3464279"
         height="6.3464303"
         x="1711.8611"
         y="-470.11365"
         transform="matrix(1,0,0,-1,0,27.64025)" />
      <rect
         y="283.65439"
         x="1616.9651"
         height="18.76634"
         width="131.56837"
         id="rect4848"
         style="display:inline;opacity:1;fill:#ffff00;fill-opacity:1;stroke:none" />
      <path
         inkscape:connector-curvature="0"
         id="rect4850"
         d="m 1592.4375,251.9375 0,21.625 0,39.8125 3.5313,0 16.6874,0 93.8438,0 0,-5.5 -93.8438,0 0,-30.9375 94.6563,0 0,-3.375 -35.5,-21.625 -59.1563,0 -20.2187,0 z"
         style="display:inline;opacity:1;fill:#00ff00;fill-opacity:1;stroke:none" />
      <rect
         y="459.58813"
         x="1801.1608"
         height="185.6236"
         width="4.4876032"
         id="rect4859"
         style="display:inline;opacity:1;fill:#00ff00;fill-opacity:1;stroke:none"
         transform="translate(0,27.64025)" />
      <rect
         style="display:inline;opacity:1;fill:#00ff00;fill-opacity:1;stroke:none"
         id="rect4861"
         width="4.4876032"
         height="58.839245"
         x="1715.484"
         y="461.46323"
         transform="translate(0,27.64025)" />
      <rect
         y="543.24561"
         x="1715.484"
         height="60.714325"
         width="4.4876032"
         id="rect4863"
         style="display:inline;opacity:1;fill:#00ff00;fill-opacity:1;stroke:none"
         transform="translate(0,27.64025)" />
      <rect
         style="display:inline;opacity:1;fill:#00ff00;fill-opacity:1;stroke:none"
         id="rect4865"
         width="4.4876032"
         height="14.558475"
         x="1715.484"
         y="628.3454"
         transform="translate(0,27.64025)" />
      <rect
         y="631.51862"
         x="1705.3875"
         height="14.558475"
         width="18.334358"
         id="rect4867"
         style="display:inline;opacity:1;fill:#00ff00;fill-opacity:1;stroke:none"
         transform="translate(0,27.64025)" />
      <rect
         transform="matrix(0,-1,1,0,0,27.64025)"
         y="1772.5426"
         x="-464.07574"
         height="30.136076"
         width="4.4876032"
         id="rect4869"
         style="display:inline;opacity:1;fill:#00ff00;fill-opacity:1;stroke:none" />
      <rect
         style="display:inline;opacity:1;fill:#00ff00;fill-opacity:1;stroke:none"
         id="rect4871"
         width="4.4876032"
         height="34.030476"
         x="-464.07574"
         y="1715.484"
         transform="matrix(0,-1,1,0,0,27.64025)" />
      <rect
         transform="matrix(0,1,-1,0,0,27.64025)"
         y="-1803.6884"
         x="512.5824"
         height="84.22496"
         width="4.4876032"
         id="rect4873"
         style="display:inline;opacity:1;fill:#00ff00;fill-opacity:1;stroke:none" />
      <rect
         style="display:inline;opacity:1;fill:#00ff00;fill-opacity:1;stroke:none"
         id="rect4875"
         width="4.4876032"
         height="84.22496"
         x="587.58563"
         y="-1803.6884"
         transform="matrix(0,1,-1,0,0,27.64025)" />
      <rect
         style="display:inline;opacity:1;fill:#00ff00;fill-opacity:1;stroke:none"
         id="rect4889"
         width="6.3464279"
         height="6.3464303"
         x="1251.0573"
         y="259.97629"
         transform="matrix(1,0,0,-1,0,27.64025)" />
      <rect
         transform="matrix(1,0,0,-1,0,27.64025)"
         y="79.493622"
         x="1251.0573"
         height="6.3464303"
         width="6.3464279"
         id="rect4891"
         style="display:inline;opacity:1;fill:#00ff00;fill-opacity:1;stroke:none" />
      <rect
         style="display:inline;opacity:1;fill:#00ff00;fill-opacity:1;stroke:none"
         id="rect4893"
         width="6.3464279"
         height="6.3464303"
         x="1251.0573"
         y="-100.98905"
         transform="matrix(1,0,0,-1,0,27.64025)" />
      <rect
         transform="matrix(1,0,0,-1,0,27.64025)"
         y="-281.47171"
         x="1251.0573"
         height="6.3464303"
         width="6.3464279"
         id="rect4895"
         style="display:inline;opacity:1;fill:#00ff00;fill-opacity:1;stroke:none" />
      <rect
         y="-410.66141"
         x="1253.4692"
         height="19.378286"
         width="24.069872"
         id="rect4714"
         style="display:inline;opacity:1;fill:#00ff00;fill-opacity:1;stroke:none" />
      <rect
         style="display:inline;opacity:1;fill:#00ff00;fill-opacity:1;stroke:none"
         id="rect4716"
         width="17.338467"
         height="21.214125"
         x="1245.9219"
         y="-401.52103" />
      <rect
         y="-401.52103"
         x="1245.9219"
         height="399.3967"
         width="5.9154763"
         id="rect4718"
         style="display:inline;opacity:1;fill:#00ff00;fill-opacity:1;stroke:none" />
      <rect
         style="display:inline;opacity:1;fill:#00ff00;fill-opacity:1;stroke:none"
         id="rect4720"
         width="5.9154763"
         height="292.08435"
         x="1245.9219"
         y="117.01897" />
      <rect
         style="display:inline;opacity:1;fill:#00ff00;fill-opacity:1;stroke:none"
         id="rect4722"
         width="5.9154763"
         height="49.15966"
         x="1245.9219"
         y="33.084438" />
      <rect
         y="400.34991"
         x="1251.3274"
         height="97.689537"
         width="7.5473323"
         id="rect4724"
         style="display:inline;opacity:1;fill:#00ff00;fill-opacity:1;stroke:none" />
      <rect
         style="display:inline;opacity:1;fill:#00ff00;fill-opacity:1;stroke:none"
         id="rect4726"
         width="65.68219"
         height="6.9175611"
         x="1251.3274"
         y="491.12189" />
      <rect
         y="491.12189"
         x="1366.3732"
         height="6.9175611"
         width="18.562355"
         id="rect4728"
         style="display:inline;opacity:1;fill:#00ff00;fill-opacity:1;stroke:none" />
      <rect
         style="display:inline;opacity:1;fill:#00ff00;fill-opacity:1;stroke:none"
         id="rect4730"
         width="48.852131"
         height="6.9175611"
         x="1440.7994"
         y="491.12189" />
      <rect
         transform="matrix(0,1,-1,0,0,0)"
         y="-1489.6516"
         x="491.12189"
         height="6.9175611"
         width="186.45425"
         id="rect4732"
         style="display:inline;opacity:1;fill:#00ff00;fill-opacity:1;stroke:none" />
      <rect
         y="670.65857"
         x="1482.734"
         height="6.9175611"
         width="56.19548"
         id="rect4734"
         style="display:inline;opacity:1;fill:#00ff00;fill-opacity:1;stroke:none" />
      <rect
         style="display:inline;opacity:1;fill:#00ff00;fill-opacity:1;stroke:none"
         id="rect4736"
         width="241.81908"
         height="6.9175611"
         x="1593.7002"
         y="670.65857" />
      <rect
         y="670.65857"
         x="1890.2899"
         height="6.9175611"
         width="54.155666"
         id="rect4738"
         style="display:inline;opacity:1;fill:#00ff00;fill-opacity:1;stroke:none" />
      <rect
         transform="matrix(0,1,-1,0,0,0)"
         style="display:inline;opacity:1;fill:#00ff00;fill-opacity:1;stroke:none"
         id="rect4740"
         width="189.19173"
         height="6.9175611"
         x="488.3844"
         y="-1944.4456" />
      <rect
         y="-2057.0437"
         x="488.3844"
         height="114.62004"
         width="8.4637032"
         id="rect4742"
         style="display:inline;opacity:1;fill:#00ff00;fill-opacity:1;stroke:none"
         transform="matrix(0,1,-1,0,0,0)" />
      <rect
         transform="matrix(0,1,-1,0,0,0)"
         style="display:inline;opacity:1;fill:#00ff00;fill-opacity:1;stroke:none"
         id="rect4744"
         width="8.4637032"
         height="58.944546"
         x="488.3844"
         y="-2171.2961" />
      <rect
         y="-496.84811"
         x="-2171.2961"
         height="907.50952"
         width="8.4637032"
         id="rect4746"
         style="display:inline;opacity:1;fill:#00ff00;fill-opacity:1;stroke:none"
         transform="scale(-1,-1)" />
      <rect
         style="display:inline;opacity:1;fill:#00ff00;fill-opacity:1;stroke:none"
         id="rect4748"
         width="18.76634"
         height="19.378286"
         x="1482.2119"
         y="-410.66141" />
      <rect
         y="-410.66141"
         x="1705.6511"
         height="19.378286"
         width="18.76634"
         id="rect4750"
         style="display:inline;opacity:1;fill:#00ff00;fill-opacity:1;stroke:none" />
      <rect
         style="display:inline;opacity:1;fill:#00ff00;fill-opacity:1;stroke:none"
         id="rect4752"
         width="18.76634"
         height="19.378286"
         x="1929.0903"
         y="-410.66141" />
      <rect
         y="-410.66141"
         x="2152.5295"
         height="19.378286"
         width="18.76634"
         id="rect4754"
         style="display:inline;opacity:1;fill:#00ff00;fill-opacity:1;stroke:none" />
      <rect
         y="-401.27823"
         x="2040.8099"
         height="5.9154768"
         width="18.76634"
         id="rect4756"
         style="display:inline;opacity:1;fill:#00ff00;fill-opacity:1;stroke:none" />
      <rect
         style="display:inline;opacity:1;fill:#00ff00;fill-opacity:1;stroke:none"
         id="rect4758"
         width="18.76634"
         height="5.9154768"
         x="1817.3707"
         y="-401.27823" />
      <rect
         y="-401.27823"
         x="1593.9315"
         height="5.9154768"
         width="18.76634"
         id="rect4760"
         style="display:inline;opacity:1;fill:#00ff00;fill-opacity:1;stroke:none" />
      <rect
         style="display:inline;opacity:1;fill:#00ff00;fill-opacity:1;stroke:none"
         id="rect4762"
         width="18.76634"
         height="5.9154768"
         x="1370.4923"
         y="-401.27823" />
    </g>
  </g>
</svg>
